<svg width="16" height="114" viewBox="0 0 16 114" fill="none" xmlns="http://www.w3.org/2000/svg">
<path d="M6.852 6.65807V7.06407H12.228V6.65807H6.852ZM11.584 4.68407V7.40007H11.808C12.242 7.40007 12.872 7.10607 12.872 7.00807V5.25807C13.124 5.21607 13.32 5.10407 13.39 5.00607L12.074 4.02607L11.458 4.68407H11.584ZM6.124 4.68407V7.72207H6.306C6.824 7.72207 7.398 7.44207 7.398 7.34407V5.07607H12.13V4.68407H7.482L6.124 4.12407V4.68407ZM8.868 0.134073V3.48007H10.17V0.610072C10.45 0.554073 10.534 0.442073 10.562 0.288072L8.868 0.134073ZM5.55 1.56207L5.662 1.96807H13.278C13.474 1.96807 13.614 1.89807 13.656 1.74407C13.138 1.28207 12.298 0.652073 12.298 0.652073L11.556 1.56207H5.55ZM4.99 3.29807L5.102 3.70407H14.034C14.23 3.70407 14.384 3.63407 14.412 3.48007C13.894 3.00407 13.026 2.36007 13.026 2.36007L12.27 3.29807H4.99ZM8.924 6.68607C8.112 8.03007 6.684 9.24807 4.948 10.0461L5.074 10.2561C7.412 9.57007 9.344 8.46407 10.436 6.91007V6.68607H8.924ZM10.016 8.17007L9.932 8.35207C11.43 9.10807 12.592 10.1161 13.054 10.7181C14.314 11.2921 15.112 8.73007 10.016 8.17007ZM12.914 6.68607C12.452 7.47007 11.92 8.24007 11.542 8.71607L11.71 8.87007C12.312 8.59007 13.068 8.14207 13.712 7.72207C14.006 7.79207 14.202 7.70807 14.286 7.58207L12.914 6.68607ZM4.57 10.3681V10.1301C3.59 10.6341 2.232 11.2921 1.448 11.5861L2.246 13.1261C2.372 13.0561 2.456 12.9581 2.442 12.7761C2.974 12.2721 3.828 11.3201 4.402 10.6201C5.368 12.4261 6.474 12.8041 9.106 12.8041C10.576 12.8041 12.424 12.8041 13.712 12.8041C13.782 12.1881 14.09 11.8101 14.636 11.6701V11.4881C12.9 11.5441 10.716 11.5441 9.078 11.5441C6.558 11.5441 5.55 11.4041 4.57 10.3681ZM4.57 6.78407C4.962 6.71407 5.172 6.60207 5.27 6.49007L3.786 5.28607L3.1 6.18207H1.49L1.574 6.58807H3.31V11.0821L4.57 10.3541V6.78407ZM2.106 0.554073L1.966 0.652073C2.624 1.29607 3.338 2.34607 3.492 3.25607C4.836 4.22207 5.956 1.45007 2.106 0.554073ZM8.756 7.83407V11.3061H8.98C9.638 11.3061 10.058 10.9841 10.058 10.9001V7.10607L8.756 7.83407ZM1.728 28.1701L1.84 28.5761H7.972C8.154 28.5761 8.308 28.5061 8.336 28.3521C7.86 27.8761 7.076 27.2321 7.076 27.2321L6.376 28.1701H1.728ZM1.392 31.0961L2.176 32.6921C2.33 32.6361 2.47 32.5381 2.54 32.3421C5.298 31.3901 7.202 30.6341 8.518 30.0741L8.476 29.8781C5.508 30.4381 2.61 30.9421 1.392 31.0961ZM1.896 21.2121V27.1901H2.078C2.568 27.1901 3.058 26.9241 3.058 26.7981V21.6181H7.314V21.2121H3.128L1.896 20.6941V21.2121ZM6.628 21.2121V26.8261H6.838C7.286 26.8261 7.902 26.5041 7.916 26.3921V21.8421C8.196 21.7861 8.392 21.6741 8.49 21.5621L7.132 20.5121L6.488 21.2121H6.628ZM2.554 23.5221V23.9281H7.328V23.5221H2.554ZM2.554 25.8181V26.2241H7.328V25.8181H2.554ZM9.022 22.5421L8.91 22.6681C9.764 23.2001 10.814 24.2081 11.136 25.1041C12.494 25.8181 13.11 23.0181 9.022 22.5421ZM8.35 21.1981L8.476 21.6041H13.152V21.1981H8.35ZM7.79 25.4401L7.916 25.8321H13.474V25.4401H7.79ZM10.24 25.5381V31.2921C10.24 31.4741 10.156 31.5581 9.904 31.5581C9.568 31.5581 7.958 31.4461 7.958 31.4461V31.6421C8.714 31.7541 9.078 31.9081 9.316 32.1321C9.526 32.3421 9.624 32.6921 9.652 33.1261C11.304 32.9861 11.556 32.2861 11.556 31.3341V25.5381H10.24ZM12.928 25.4401C12.788 26.1821 12.438 27.4281 12.144 28.2121L12.284 28.3101C12.97 27.7361 13.782 26.7841 14.244 26.0981C14.524 26.0701 14.678 26.0421 14.79 25.9441L13.502 24.6981L12.76 25.4401H12.928ZM12.536 21.1981C12.172 21.8701 11.318 22.9901 10.73 23.6481L10.87 23.7601C11.836 23.2981 13.18 22.4861 13.894 21.8701C14.202 21.8561 14.37 21.8141 14.482 21.7161L13.152 20.4421L12.368 21.1981H12.536ZM4.22 21.2121V31.1101L5.438 30.8301V21.2121H4.22ZM4.5 50.3821V50.1301C3.548 50.6481 2.218 51.3201 1.462 51.6281L2.26 53.1261C2.386 53.0561 2.456 52.9721 2.442 52.7901C2.96 52.2721 3.786 51.3341 4.332 50.6341C5.298 52.4401 6.404 52.8181 9.036 52.8181C10.52 52.8181 12.34 52.8181 13.656 52.8181C13.712 52.2161 14.02 51.8381 14.552 51.7121V51.5301C12.83 51.5861 10.646 51.5861 9.022 51.5861C6.516 51.5861 5.494 51.4461 4.5 50.3821ZM4.5 46.7841C4.892 46.7141 5.102 46.6021 5.2 46.4901L3.73 45.2861L3.044 46.1821H1.476L1.56 46.5881H3.24V51.0681L4.5 50.3541V46.7841ZM2.106 40.5541L1.98 40.6521C2.624 41.2961 3.31 42.3461 3.478 43.2561C4.794 44.2361 5.914 41.4781 2.106 40.5541ZM6.866 40.3301C6.712 41.3101 6.054 43.8301 5.522 45.3981C6.642 46.8681 7.384 49.3601 7.454 50.7041C8.63 51.7541 10.058 48.6321 5.9 45.3421C6.698 44.0401 7.874 41.7861 8.266 41.0861C8.574 41.1141 8.728 41.0161 8.784 40.8341L6.866 40.3301ZM9.568 40.3301C9.372 41.3241 8.588 43.8301 8.014 45.3841C9.26 46.8261 10.128 49.3321 10.254 50.6901C11.458 51.6981 12.83 48.5761 8.406 45.3281C9.246 44.0541 10.52 41.7861 10.926 41.1001C11.234 41.1281 11.388 41.0301 11.444 40.8481L9.568 40.3301ZM12.354 40.3301C12.116 41.3241 11.248 43.8441 10.618 45.3841C11.948 46.7981 12.928 49.3041 13.11 50.6901C14.384 51.6981 15.714 48.5201 11.024 45.3281C11.906 44.0541 13.292 41.8141 13.726 41.1281C14.048 41.1561 14.202 41.0721 14.258 40.8901L12.354 40.3301ZM6.236 61.5061L6.348 61.9121H14.23C14.44 61.9121 14.58 61.8421 14.608 61.6881C14.104 61.1981 13.236 60.5261 13.236 60.5261L12.494 61.5061H6.236ZM3.94 60.3021C3.94 66.5461 4.276 70.2981 1.406 72.8321L1.56 73.0561C5.508 70.7601 5.186 67.0361 5.228 60.8761C5.55 60.8341 5.69 60.6941 5.732 60.4841L3.94 60.3021ZM4.458 68.3381L4.318 68.4501C5.186 69.2061 6.138 70.4521 6.39 71.5021C7.762 72.4401 8.728 69.5281 4.458 68.3381ZM6.446 62.8501C6.18 63.4801 5.508 64.7681 5.004 65.5801L5.116 65.6781C5.998 65.1601 6.978 64.4181 7.482 63.9701C7.748 64.0681 7.958 63.9561 8.014 63.8441L6.446 62.8501ZM2.652 63.3541C2.666 64.5581 2.176 65.4261 1.826 65.7061C0.888 66.4761 1.7 67.4141 2.54 66.8121C3.296 66.2521 3.394 64.9641 2.848 63.3541H2.652ZM10.618 61.5621V71.1941C10.618 71.3901 10.548 71.4741 10.296 71.4741C9.96 71.4741 8.406 71.3761 8.406 71.3761V71.5721C9.148 71.6841 9.484 71.8521 9.722 72.0621C9.932 72.2721 10.03 72.6221 10.058 73.0561C11.696 72.9021 11.92 72.1881 11.92 71.2501V61.5621H10.618ZM4.094 88.8561V89.2621H11.878V88.8561H4.094ZM4.094 90.3541V90.7461H11.906V90.3541H4.094ZM3.422 87.3861V91.7681H3.604C4.122 91.7681 4.696 91.4741 4.696 91.3621V87.7921H11.892V87.3861H4.78L3.422 86.8261V87.3861ZM11.248 87.3861V91.2501H11.472C11.878 91.2501 12.536 90.9981 12.55 90.9141V87.9461C12.774 87.9041 12.956 87.7921 13.026 87.7081L11.738 86.7421L11.136 87.3861H11.248ZM7.3 87.3861V91.6841C7.3 92.6361 7.664 92.8601 9.12 92.8601L11.038 92.8741C13.922 92.8741 14.468 92.6921 14.468 92.1321C14.468 91.8801 14.342 91.7541 13.908 91.6141L13.852 90.3401H13.698C13.488 90.9561 13.306 91.4041 13.152 91.5861C13.068 91.6981 12.956 91.7401 12.76 91.7541C12.48 91.7681 11.864 91.7681 11.15 91.7681H9.288C8.658 91.7681 8.588 91.6981 8.588 91.4601V87.8481C8.588 87.7221 8.588 87.5681 8.588 87.3861H7.3ZM5.27 84.4461L5.144 84.5301C5.368 84.8661 5.606 85.4401 5.592 85.9301C6.544 86.8541 7.986 85.0481 5.27 84.4461ZM2.554 84.1941L2.68 84.6001H13.544C13.74 84.6001 13.88 84.5301 13.922 84.3761C13.39 83.9421 12.578 83.3821 12.578 83.3821L11.85 84.1941H2.554ZM1.504 86.1541L1.63 86.5601H14.118C14.328 86.5601 14.454 86.4901 14.496 86.3361C13.978 85.8881 13.152 85.3141 13.152 85.3141L12.424 86.1541H1.504ZM7.342 83.1301V84.4321H8.658V83.6481C8.98 83.5921 9.092 83.4661 9.106 83.2841L7.342 83.1301ZM9.68 84.4041C9.526 84.9921 9.26 85.8461 9.036 86.3781H9.274C9.848 86.0281 10.506 85.5521 10.94 85.1881C11.234 85.1881 11.416 85.0901 11.472 84.9221L9.68 84.4041ZM3.702 80.1201C3.17 81.7021 2.288 83.2141 1.462 84.1381L1.63 84.2781C2.82 83.5921 3.982 82.4721 4.822 81.0441C5.116 81.0861 5.298 80.9741 5.382 80.8201L3.702 80.1201ZM3.66 81.7161V82.1221H7.86C8.056 82.1221 8.196 82.0521 8.238 81.8981C7.776 81.4501 7.02 80.8481 7.02 80.8481L6.362 81.7161H3.66ZM8.854 81.7161V82.1221H14.132C14.342 82.1221 14.482 82.0521 14.51 81.8981C14.006 81.4221 13.166 80.7921 13.166 80.7921L12.424 81.7161H8.854ZM4.682 81.8421L4.528 81.9261C4.836 82.3461 5.144 83.0461 5.158 83.6341C6.11 84.4741 7.286 82.6261 4.682 81.8421ZM8.98 80.1061C8.644 81.2961 8.098 82.5001 7.594 83.2561L7.776 83.3961C8.616 82.8501 9.456 81.9681 10.1 80.9461C10.394 80.9741 10.562 80.8481 10.632 80.6941L8.98 80.1061ZM10.002 81.8001L9.862 81.8841C10.226 82.3181 10.632 83.0321 10.716 83.6621C11.78 84.4741 12.9 82.4301 10.002 81.8001ZM8.7 103.424L8.518 103.508C9.4 107.134 11.052 109.864 13.25 111.46C13.488 110.802 13.964 110.368 14.524 110.298L14.566 110.144C12.214 108.996 9.848 106.448 8.7 103.424ZM8.182 103.648V103.424H6.614C5.76 106.35 3.898 109.542 1.448 111.572L1.602 111.74C4.85 109.836 7.09 106.952 8.182 103.648ZM9.134 100.33L7.258 100.134V113.14H7.524C8.042 113.14 8.63 112.79 8.63 112.636V100.722C9.008 100.666 9.106 100.526 9.134 100.33ZM12.816 102.318L11.934 103.424H1.644L1.77 103.83H14.034C14.23 103.83 14.384 103.76 14.426 103.606C13.81 103.074 12.816 102.318 12.816 102.318Z" fill="black"/>
</svg>
