<svg width="11" height="318" viewBox="0 0 11 318" fill="none" xmlns="http://www.w3.org/2000/svg">
<path d="M2.64 4.73086H8.55L9.11 4.06086C9.11 4.06086 9.72 4.53086 10.1 4.87086C10.07 4.98086 9.97 5.03086 9.83 5.03086H2.64V4.73086ZM2.22 0.58086V0.20086L3.15 0.58086H3.03V8.04086C3.03 8.11086 2.77 8.31086 2.35 8.31086H2.22V0.58086ZM2.66 0.58086H8.5V0.86086H2.66V0.58086ZM2.65 2.74086H8.43V3.04086H2.65V2.74086ZM8.14 0.58086H8.04L8.46 0.11086L9.37 0.810861C9.31 0.89086 9.16 0.97086 8.96 1.01086V3.35086C8.95 3.42086 8.55 3.60086 8.27 3.60086H8.14V0.58086ZM0.96 8.17086C1.85 8.03086 3.91 7.62086 6.08 7.15086L6.11 7.31086C5.13 7.70086 3.74 8.22086 1.77 8.88086C1.72 9.00086 1.64 9.09086 1.54 9.12086L0.96 8.17086ZM5.35 2.89086H6.16C6.16 4.98086 6.96 7.22086 9.04 8.00086C9.23 8.07086 9.33 8.05086 9.4 7.90086C9.51 7.69086 9.68 7.30086 9.81 6.94086L9.93 6.96086L9.81 8.19086C10.11 8.47086 10.17 8.63086 10.07 8.81086C9.87 9.16086 9.26 9.02086 8.71 8.77086C6.28 7.73086 5.45 5.44086 5.35 2.89086ZM4.91 22.1009H8.6V22.4009H4.91V22.1009ZM7.29 14.1209C10.38 15.1309 9.93 16.9609 9 16.4409C8.67 15.7309 7.81 14.7809 7.18 14.2009L7.29 14.1209ZM5.37 14.0909L6.47 14.6409C6.42 14.7409 6.34 14.7909 6.1 14.7509C5.61 15.4309 4.73 16.2909 3.77 16.8309L3.66 16.7209C4.38 16.0009 5.06 14.8709 5.37 14.0909ZM4.53 19.4909V19.1309L5.36 19.4909H8.57V19.7809H5.31V22.9009C5.31 22.9709 4.97 23.1509 4.65 23.1509H4.53V19.4909ZM8.17 19.4909H8.08L8.48 19.0609L9.33 19.7109C9.28 19.7709 9.14 19.8509 8.97 19.8809V22.9109C8.96 22.9809 8.57 23.1509 8.3 23.1509H8.17V19.4909ZM2.11 16.9909L2.47 16.5309L3.22 16.8109C3.19 16.9009 3.09 16.9609 2.92 17.0009V22.9109C2.91 22.9709 2.57 23.1609 2.26 23.1609H2.11V16.9909ZM2.95 13.9409L4.16 14.3109C4.11 14.4309 3.99 14.5209 3.77 14.5109C3.07 16.3909 2.06 18.0509 0.9 19.1409L0.78 19.0509C1.6 17.8209 2.46 15.8609 2.95 13.9409ZM6.96 16.3709C6.28 17.7609 4.8 19.1109 3.28 19.8609L3.2 19.7309C4.49 18.8309 5.86 17.0609 6.19 15.7709L7.49 16.0709C7.47 16.1809 7.36 16.2309 7.11 16.2609C7.74 17.3709 9.04 18.2109 10.29 18.7009L10.28 18.8409C9.93 18.9309 9.69 19.2509 9.62 19.5809C8.44 18.8509 7.42 17.7309 6.96 16.3709ZM5.5 33.5309C4.96 33.5309 4.52 33.0909 4.52 32.5509C4.52 32.0209 4.96 31.5809 5.5 31.5809C6.03 31.5809 6.47 32.0209 6.47 32.5509C6.47 33.0909 6.03 33.5309 5.5 33.5309ZM0.99 46.9909H8.54L9.08 46.3009C9.08 46.3009 9.69 46.7809 10.06 47.1209C10.04 47.2309 9.93 47.2809 9.79 47.2809H1.08L0.99 46.9909ZM2.03 45.2109H7.6L8.11 44.5609C8.11 44.5609 8.7 45.0209 9.05 45.3409C9.02 45.4509 8.92 45.5009 8.79 45.5009H2.1L2.03 45.2109ZM4.25 47.1209H5.38C4.82 48.1809 3.98 49.5109 3.32 50.2409H3.06C3.47 49.4809 4 48.0509 4.25 47.1209ZM1.24 49.9609C2.49 49.9509 5.37 49.8009 8.44 49.6209L8.45 49.8009C6.97 50.0809 4.93 50.3909 1.98 50.7909C1.91 50.9109 1.81 50.9909 1.69 51.0109L1.24 49.9609ZM6.56 48.0809C10.25 49.4009 9.74 51.6809 8.73 51.0209C8.42 50.0409 7.34 48.8709 6.46 48.1709L6.56 48.0809ZM0.88 43.2409H3.62V41.9509L4.76 42.0509C4.75 42.1909 4.67 42.2909 4.41 42.3209V43.2409H6.48V41.9509L7.64 42.0509C7.62 42.1909 7.54 42.2909 7.28 42.3209V43.2409H8.62L9.14 42.5709C9.14 42.5709 9.74 43.0509 10.08 43.3709C10.06 43.4809 9.95 43.5309 9.81 43.5309H7.28V44.4709C7.28 44.5509 6.99 44.6809 6.62 44.6909H6.48V43.5309H4.41V44.5109C4.41 44.6109 4.07 44.7209 3.75 44.7209H3.62V43.5309H0.94L0.88 43.2409ZM3.81 56.9009C6.27 57.7009 5.66 59.3409 4.86 58.7709C4.71 58.1909 4.15 57.4309 3.71 56.9709L3.81 56.9009ZM2.58 55.9209L3.82 56.2009C3.78 56.3209 3.67 56.4109 3.45 56.4109C3.13 56.9909 2.59 57.8109 2.1 58.4209H1.93C2.16 57.7109 2.43 56.6609 2.58 55.9209ZM0.79 58.0709C1.51 58.0609 3.17 57.9709 4.87 57.8609L4.89 58.0109C4.09 58.2209 2.96 58.4809 1.41 58.8009C1.35 58.9209 1.25 58.9809 1.15 59.0009L0.79 58.0709ZM1.81 60.9109H4.67V61.2009H1.81V60.9109ZM1.79 62.3709H4.65V62.6609H1.79V62.3709ZM1.52 59.4909V59.1309L2.34 59.4909H4.78V59.7809H2.29V64.8709C2.29 64.9509 1.98 65.1409 1.65 65.1409H1.52V59.4909ZM6.04 56.0409L7.14 56.1609C7.13 56.2809 7.03 56.3809 6.84 56.4109V59.3509C6.84 59.5009 6.88 59.5509 7.21 59.5509H8.1C8.48 59.5509 8.79 59.5509 8.92 59.5409C9.03 59.5309 9.09 59.5109 9.13 59.4309C9.21 59.3009 9.34 58.8709 9.46 58.4009H9.57L9.6 59.4609C9.85 59.5509 9.91 59.6409 9.91 59.7909C9.91 60.1409 9.55 60.2709 8.05 60.2709H7.04C6.21 60.2709 6.04 60.1009 6.04 59.5209V56.0409ZM4.17 59.4909H4.07L4.45 59.0209L5.38 59.7309C5.32 59.8009 5.16 59.8909 4.96 59.9309V64.1009C4.96 64.7009 4.85 65.0609 3.93 65.1509C3.91 64.9009 3.87 64.6909 3.77 64.5609C3.66 64.4409 3.48 64.3509 3.14 64.2909V64.1409C3.14 64.1409 3.82 64.1909 3.99 64.1909C4.13 64.1909 4.17 64.1409 4.17 64.0109V59.4909ZM8.92 56.5709L9.81 57.2309C9.72 57.3309 9.55 57.3409 9.31 57.2709C8.69 57.5809 7.65 57.9809 6.7 58.2009L6.63 58.0509C7.46 57.6809 8.45 57.0309 8.92 56.5709ZM6.05 60.6209L7.15 60.7309C7.14 60.8509 7.04 60.9509 6.84 60.9809V64.0309C6.84 64.1909 6.89 64.2409 7.23 64.2409H8.15C8.55 64.2409 8.87 64.2409 8.99 64.2309C9.11 64.2209 9.16 64.1909 9.21 64.1109C9.3 63.9709 9.42 63.5009 9.54 62.9809H9.66L9.69 64.1409C9.94 64.2409 10.01 64.3309 10.01 64.4809C10.01 64.8309 9.65 64.9709 8.1 64.9709H7.07C6.22 64.9709 6.05 64.7909 6.05 64.2009V60.6209ZM8.95 61.0409L9.91 61.7009C9.83 61.7909 9.67 61.8209 9.41 61.7509C8.76 62.1209 7.68 62.5909 6.66 62.8309L6.59 62.6909C7.47 62.2809 8.48 61.5509 8.95 61.0409ZM5.5 75.5309C4.96 75.5309 4.52 75.0909 4.52 74.5509C4.52 74.0209 4.96 73.5809 5.5 73.5809C6.03 73.5809 6.47 74.0209 6.47 74.5509C6.47 75.0909 6.03 75.5309 5.5 75.5309ZM3.22 88.2209H7.8V88.5209H3.22V88.2209ZM3.22 89.5209H7.81V89.8109H3.22V89.5209ZM2.95 86.9709V86.6009L3.79 86.9709H7.73V87.2609H3.74V92.0709C3.74 92.1509 3.42 92.3409 3.08 92.3409H2.95V86.9709ZM7.3 86.9709H7.21L7.61 86.5509L8.46 87.1909C8.4 87.2609 8.27 87.3309 8.12 87.3609V89.8309C8.11 89.9109 7.72 90.1109 7.43 90.1109H7.3V86.9709ZM5.11 85.7609L6.23 85.8609C6.21 85.9909 6.14 86.0809 5.91 86.1209V87.1409H5.11V85.7609ZM8.37 89.8309L9.32 90.4809C9.25 90.5709 9.16 90.6109 8.95 90.5409C8.4 90.8409 7.48 91.2309 6.69 91.4509L6.58 91.3309C7.21 90.9209 7.98 90.2509 8.37 89.8309ZM5.41 89.5609C6.14 91.2409 7.92 92.0209 10.08 92.3209L10.07 92.4309C9.73 92.5109 9.49 92.7809 9.39 93.1709C7.32 92.6309 5.92 91.6409 5.26 89.6509L5.41 89.5609ZM1.41 92.2009C2.25 92.1209 4.17 91.8309 6.17 91.5209L6.2 91.6809C5.31 92.0009 4.02 92.4209 2.19 92.9409C2.14 93.0709 2.05 93.1409 1.95 93.1709L1.41 92.2009ZM5.76 84.5209C4.8 85.6809 2.8 87.0209 1.01 87.6909L0.94 87.5509C2.55 86.7309 4.51 85.0509 5.02 83.8909L6.36 84.2009C6.33 84.3209 6.21 84.3709 5.94 84.4009C6.87 85.3309 8.58 86.0409 10.15 86.4909L10.14 86.6409C9.78 86.7209 9.53 87.0409 9.47 87.3509C7.96 86.7209 6.5 85.6809 5.76 84.5209ZM5.5 103.531C4.96 103.531 4.52 103.091 4.52 102.551C4.52 102.021 4.96 101.581 5.5 101.581C6.03 101.581 6.47 102.021 6.47 102.551C6.47 103.091 6.03 103.531 5.5 103.531ZM2.99 118.471H7.98V118.751H2.99V118.471ZM2.99 120.141H7.98V120.431H2.99V120.141ZM2.69 116.851V116.481L3.56 116.851H8.1V117.141H3.5V120.901C3.5 120.981 3.15 121.171 2.82 121.171H2.69V116.851ZM7.53 116.851H7.43L7.86 116.391L8.76 117.081C8.7 117.161 8.55 117.241 8.36 117.281V120.851C8.35 120.941 7.96 121.141 7.66 121.141H7.53V116.851ZM5.05 111.971L6.2 112.071C6.18 112.201 6.11 112.291 5.87 112.331V113.381H5.05V111.971ZM1.44 113.211H8.17L8.68 112.551C8.68 112.551 9.28 113.011 9.65 113.341C9.62 113.451 9.52 113.501 9.38 113.501H1.52L1.44 113.211ZM0.99 115.501H8.49L9.04 114.801C9.04 114.801 9.66 115.291 10.04 115.631C10.01 115.741 9.91 115.791 9.77 115.791H1.08L0.99 115.501ZM3.3 113.541C5.32 114.461 4.5 115.981 3.79 115.321C3.76 114.751 3.46 114.051 3.18 113.591L3.3 113.541ZM6.97 113.471L8.16 113.861C8.11 113.971 7.99 114.051 7.78 114.041C7.44 114.521 6.86 115.181 6.33 115.661H6.15C6.45 115.051 6.79 114.131 6.97 113.471ZM4.15 128.631H6.87V128.911H4.15V128.631ZM4.15 130.171H6.87V130.461H4.15V130.171ZM3.81 127.131V126.781L4.61 127.131H6.9V127.421H4.56V130.751C4.56 130.821 4.24 131.001 3.93 131.001H3.81V127.131ZM6.42 127.131H6.33L6.73 126.681L7.61 127.361C7.55 127.431 7.4 127.511 7.21 127.541V130.641C7.2 130.711 6.81 130.881 6.55 130.881H6.42V127.131ZM5.12 125.911L6.31 126.101C6.27 126.251 6.15 126.341 5.93 126.341C5.73 126.621 5.41 127.001 5.19 127.261H4.9C4.97 126.911 5.07 126.301 5.12 125.911ZM7.41 128.941C10.49 129.281 10.28 131.081 9.34 130.731C8.96 130.151 8.02 129.431 7.33 129.051L7.41 128.941ZM1.37 126.681C3.96 127.271 3.4 128.971 2.55 128.431C2.36 127.871 1.75 127.181 1.27 126.761L1.37 126.681ZM0.94 130.101C1.42 129.931 2.57 129.461 3.7 128.961L3.75 129.091C3.31 129.461 2.64 130.041 1.73 130.731C1.71 130.851 1.65 130.951 1.56 131.001L0.94 130.101ZM0.89 131.851H8.54L9.09 131.161C9.09 131.161 9.72 131.631 10.1 131.981C10.07 132.081 9.97 132.131 9.83 132.131H0.98L0.89 131.851ZM4.44 131.851H5.48V132.011C4.51 133.311 2.85 134.291 0.9 134.881L0.83 134.731C2.36 134.051 3.68 132.951 4.44 131.851ZM5.96 131.851C6.81 132.891 8.63 133.701 10.21 134.001L10.2 134.111C9.87 134.181 9.61 134.441 9.52 134.831C7.97 134.301 6.6 133.301 5.82 131.941L5.96 131.851ZM5.06 130.861L6.27 130.981C6.25 131.121 6.16 131.211 5.9 131.251V134.911C5.9 134.991 5.54 135.151 5.21 135.151H5.06V130.861ZM8.8 126.571L9.89 127.241C9.83 127.321 9.72 127.331 9.57 127.291C9.1 127.631 8.21 128.171 7.57 128.551L7.46 128.431C7.91 127.891 8.5 127.061 8.8 126.571ZM2.24 154.551V154.181L3.1 154.551H8.23V154.831H3.03V158.091C3.03 158.171 2.69 158.351 2.36 158.351H2.24V154.551ZM7.93 154.551H7.84L8.24 154.111L9.1 154.761C9.04 154.831 8.91 154.921 8.73 154.951V157.951C8.72 158.021 8.33 158.211 8.06 158.211H7.93V154.551ZM2.75 156.021H8.25V156.301H2.75V156.021ZM2.75 157.521H8.25V157.811H2.75V157.521ZM5.08 154.581H5.85V157.651H5.08V154.581ZM0.98 160.681H8.52L9.05 160.021C9.05 160.021 9.66 160.481 10.03 160.811C10 160.921 9.91 160.971 9.76 160.971H1.07L0.98 160.681ZM1.62 159.001H8.18L8.68 158.371C8.68 158.371 9.27 158.811 9.63 159.141C9.6 159.251 9.51 159.301 9.37 159.301H1.71L1.62 159.001ZM6.41 161.421C10.97 162.011 9.65 163.661 8.88 163.021C8.42 162.561 7.56 162.001 6.36 161.581L6.41 161.421ZM3.99 161.201L5 161.831C4.92 161.931 4.76 161.961 4.5 161.901C3.74 162.401 2.43 162.931 1.11 163.161L1.05 163.021C2.21 162.611 3.42 161.831 3.99 161.201ZM3.77 157.981L4.93 158.091C4.91 158.231 4.82 158.331 4.56 158.371V160.871H3.77V157.981ZM6.33 157.991L7.5 158.101C7.48 158.241 7.38 158.341 7.13 158.371V160.871H6.33V157.991ZM5.09 168.551H5.88V171.941H5.09V168.551ZM7.98 168.531H7.89L8.3 168.061L9.21 168.751C9.14 168.831 8.99 168.921 8.79 168.961V172.291C8.78 172.351 8.38 172.531 8.11 172.531H7.98V168.531ZM2.69 170.131H8.45V170.421H2.69V170.131ZM2.69 171.801H8.44V172.091H2.69V171.801ZM2.27 168.531V168.151L3.13 168.531H8.44V168.811H3.07V172.351C3.07 172.431 2.73 172.621 2.39 172.621H2.27V168.531ZM4.29 171.861H5.22V172.011C4.37 173.281 2.88 174.121 0.96 174.621L0.88 174.461C2.41 173.881 3.61 172.961 4.29 171.861ZM6.25 171.851C6.98 172.831 8.67 173.451 10.15 173.711L10.14 173.811C9.82 173.891 9.6 174.151 9.51 174.541C8.07 174.041 6.76 173.201 6.11 171.941L6.25 171.851ZM6.46 173.161L7.54 173.271C7.52 173.381 7.45 173.461 7.26 173.481V176.921C7.26 177.001 6.9 177.161 6.62 177.161H6.46V173.161ZM3.74 173.171L4.86 173.281C4.85 173.401 4.77 173.501 4.54 173.531V174.321C4.51 175.441 4.03 176.611 1.35 177.181L1.26 177.041C3.34 176.381 3.74 175.341 3.74 174.301V173.171ZM2.05 183.541C2.44 183.921 2.66 184.151 3.39 184.151C4.29 184.131 5.59 183.741 6.2 183.481C6.6 183.311 6.68 183.201 6.83 183.201C7.08 183.201 7.32 183.291 7.32 183.531C7.32 183.661 7.23 183.771 7.02 183.871C6.46 184.151 4.65 184.751 3.22 184.751C2.4 184.751 2.23 184.451 1.87 183.661L2.05 183.541ZM6.12 188.911C6.12 189.181 5.99 189.351 5.75 189.351C5.54 189.351 5.35 189.231 5.35 188.921C5.35 188.601 5.42 187.871 5.4 187.211C5.37 186.331 5.21 186.011 4.69 186.011C4.15 186.011 3.5 186.611 3.1 187.051C2.74 187.451 2.45 187.961 2.18 187.971C1.94 187.981 1.8 187.781 1.79 187.501C1.79 187.201 2.15 186.971 2.58 186.511C3.62 185.471 4.45 183.971 4.61 183.221C4.66 183.041 4.63 182.961 4.45 182.871C4.32 182.801 4.11 182.741 3.87 182.691V182.521C4.08 182.451 4.32 182.381 4.49 182.381C4.83 182.381 5.53 182.551 5.53 182.821C5.53 182.961 5.45 183.031 5.34 183.251C5.23 183.471 5.05 183.841 4.89 184.151C4.64 184.601 4.33 185.171 3.74 185.951C3.69 186.001 3.73 186.051 3.8 186.011C4.12 185.831 4.49 185.661 4.89 185.661C5.56 185.661 5.96 186.121 6.04 186.921C6.12 187.531 6.12 188.481 6.12 188.911ZM7.99 184.791C8.39 184.851 8.61 184.911 8.8 185.041C9.08 185.221 9.41 185.601 9.41 185.911C9.41 186.131 9.26 186.141 8.83 186.271C7.94 186.531 6.49 187.081 5.57 187.581C4.56 188.131 3.78 188.781 3.78 189.391C3.78 189.901 4.34 190.171 5.3 190.171C6.78 190.171 7.37 189.851 7.82 189.851C8.21 189.851 8.47 189.961 8.47 190.221C8.47 190.411 8.4 190.551 8.06 190.641C7.7 190.751 6.67 190.911 5.82 190.911C3.93 190.911 3.32 190.301 3.32 189.491C3.32 188.621 4.41 187.741 5.63 187.001C6.44 186.521 7.65 186.021 8.31 185.661C8.48 185.571 8.5 185.471 8.37 185.311C8.27 185.191 8.07 185.061 7.88 184.961L7.99 184.791ZM1.93 197.751L2.05 197.621C2.35 197.701 2.65 197.811 2.86 197.961C3.1 198.121 3.42 198.331 3.53 198.771C3.65 199.231 3.78 200.021 4.13 200.651C4.45 201.231 4.87 201.591 5.28 201.811C5.5 201.921 5.71 202.091 5.71 202.351C5.71 202.551 5.56 202.641 5.35 202.641C5.11 202.641 4.82 202.471 4.64 202.331C4.12 201.961 3.76 201.401 3.54 200.911C3.23 200.251 3.02 199.421 2.84 198.891C2.7 198.501 2.38 198.151 1.93 197.751ZM5.3 196.991L5.28 196.801C5.47 196.691 5.72 196.611 5.93 196.611C6.37 196.611 7.1 197.011 7.1 197.311C7.1 197.521 6.94 197.651 6.85 197.941C6.6 198.791 6.35 199.611 5.7 200.881C5.12 202.001 4.58 202.671 3.94 203.161C3.54 203.471 3.09 203.761 2.49 203.761C1.87 203.761 1.59 203.131 1.59 202.491C1.59 200.981 2.65 199.871 3.18 199.461C3.89 198.911 4.8 198.391 6.19 198.391C8.25 198.391 9.52 199.711 9.52 201.371C9.52 203.021 8.45 204.491 4.88 204.671L4.84 204.441C7.88 203.911 8.67 202.531 8.67 201.211C8.67 199.971 7.72 198.811 6.15 198.811C5.16 198.811 4.3 199.041 3.48 199.741C2.63 200.481 2.19 201.531 2.19 202.171C2.19 202.711 2.39 202.951 2.66 202.951C3.03 202.951 3.29 202.791 3.6 202.551C4.09 202.171 4.7 201.411 5.11 200.621C5.73 199.441 6.09 198.131 6.16 197.411C6.18 197.181 6.07 197.121 5.9 197.071C5.72 197.021 5.53 197.001 5.3 196.991ZM7.58 213.591C7.37 213.321 7.09 212.981 6.66 212.631L6.79 212.471C7.31 212.671 7.72 212.901 8 213.151C8.23 213.371 8.33 213.551 8.33 213.741C8.33 213.931 8.23 214.051 8.04 214.051C7.89 214.051 7.77 213.841 7.58 213.591ZM8.51 212.741C8.3 212.491 8.04 212.231 7.58 211.881L7.7 211.711C8.24 211.891 8.64 212.091 8.9 212.291C9.16 212.501 9.27 212.701 9.27 212.921C9.27 213.101 9.16 213.211 9 213.211C8.82 213.211 8.72 213.001 8.51 212.741ZM5.25 210.531L5.36 210.361C5.61 210.401 5.83 210.441 6.04 210.561C6.45 210.781 6.85 211.241 6.85 211.521C6.85 211.751 6.64 211.831 6.27 212.101C5.58 212.641 4.3 213.781 3.88 214.201C3.6 214.481 3.53 214.601 3.53 214.721C3.53 214.851 3.65 214.981 3.87 215.151C4.88 215.931 5.82 216.571 6.53 217.471C6.82 217.841 7.01 218.221 7.01 218.521C7.01 218.801 6.87 219.031 6.54 219.031C6.35 219.031 6.2 218.901 6.12 218.751C6.01 218.551 5.91 218.301 5.64 217.881C5.19 217.191 4.45 216.461 3.25 215.441C3 215.231 2.87 215.011 2.87 214.801C2.87 214.611 2.97 214.431 3.14 214.241C3.65 213.631 5.11 212.171 5.55 211.631C5.72 211.431 5.78 211.331 5.78 211.201C5.78 211.021 5.62 210.811 5.25 210.531ZM3.42 224.931C3.55 225.221 3.72 225.521 3.98 225.521C4.37 225.521 5.57 225.221 6.05 225.081C6.32 224.991 6.34 224.871 6.5 224.871C6.85 224.871 7.46 225.361 7.46 225.671C7.46 225.891 7.2 225.921 6.85 226.201C6.3 226.631 5 227.851 4.57 228.321C4.49 228.401 4.53 228.471 4.62 228.441C5.05 228.281 5.63 228.091 6.33 228.091C7.64 228.091 8.76 228.941 8.73 230.361C8.71 231.641 7.58 232.681 5.63 232.681C4.5 232.681 3.71 232.211 3.71 231.451C3.71 230.881 4.22 230.471 4.89 230.471C5.64 230.471 6.46 230.951 6.58 232.051L5.89 232.161C5.8 231.331 5.32 230.861 4.71 230.861C4.35 230.861 4.09 231.071 4.09 231.391C4.09 231.741 4.53 232.031 5.44 232.031C7.16 232.031 7.96 231.151 7.97 230.151C8 229.271 7.35 228.451 6.15 228.451C4.73 228.451 3.73 229.381 2.89 230.461C2.72 230.691 2.63 230.751 2.45 230.751C2.3 230.741 2.13 230.561 2.15 230.271C2.16 230.071 2.27 229.911 2.52 229.651C3.93 228.211 5.82 226.411 6.26 225.721C6.38 225.561 6.31 225.511 6.18 225.531C5.84 225.601 5.05 225.911 4.63 226.101C4.44 226.191 4.29 226.351 4.12 226.351C3.68 226.351 3.28 225.841 3.22 225.541C3.19 225.351 3.2 225.151 3.24 224.951L3.42 224.931ZM2.95 245.271C3.65 246.061 4.4 246.171 6.17 246.171C7.35 246.171 8.93 246.171 10.16 246.131V246.271C9.82 246.331 9.63 246.561 9.59 246.931C8.62 246.931 7.27 246.931 6.18 246.931C4.32 246.931 3.52 246.681 2.82 245.461C2.44 245.931 1.86 246.561 1.49 246.911C1.51 247.041 1.46 247.101 1.37 247.151L0.85 246.211C1.37 245.991 2.29 245.481 2.95 245.091V245.271ZM2.95 242.651V245.261L2.18 245.711V242.531H0.94L0.88 242.241H2.04L2.48 241.661L3.44 242.451C3.37 242.521 3.22 242.601 2.95 242.651ZM1.33 238.241C3.89 238.981 3.22 240.781 2.38 240.161C2.25 239.531 1.71 238.771 1.23 238.321L1.33 238.241ZM4.74 238.081L5.95 238.391C5.91 238.521 5.8 238.591 5.58 238.571C5.33 239.061 4.53 240.721 4 241.671C6.77 244.151 5.88 246.191 5.15 245.521C5.08 244.581 4.54 242.791 3.72 241.701C4.12 240.591 4.62 238.771 4.74 238.081ZM6.7 238.081L7.89 238.411C7.85 238.531 7.75 238.601 7.53 238.581C7.25 239.061 6.38 240.731 5.82 241.651C8.78 244.111 7.93 246.151 7.17 245.491C7.07 244.561 6.44 242.751 5.54 241.691C5.96 240.591 6.55 238.781 6.7 238.081ZM8.73 238.081L9.93 238.431C9.89 238.561 9.79 238.621 9.56 238.601C9.27 239.071 8.32 240.731 7.73 241.651C10.88 244.071 10.05 246.151 9.25 245.501C9.12 244.541 8.4 242.731 7.44 241.691C7.9 240.601 8.55 238.781 8.73 238.081ZM5.88 252.061L7.06 252.191C7.04 252.321 6.95 252.431 6.7 252.471V259.811C6.7 260.071 6.79 260.171 7.2 260.171H8.15C8.59 260.171 8.9 260.161 9.05 260.151C9.16 260.141 9.23 260.101 9.29 260.001C9.37 259.811 9.53 259.121 9.68 258.411H9.8L9.83 260.071C10.11 260.171 10.18 260.271 10.18 260.431C10.18 260.821 9.76 260.951 8.11 260.951H7.05C6.15 260.951 5.88 260.731 5.88 260.031V252.061ZM2.61 251.961L3.78 252.061C3.76 252.201 3.68 252.301 3.42 252.341V254.011H2.61V251.961ZM0.94 253.901H4.48V254.191H1.03L0.94 253.901ZM4.05 253.901H3.97L4.47 253.421L5.26 254.221C5.18 254.301 5.05 254.331 4.81 254.341C4.03 255.711 2.41 257.201 0.81 258.031L0.7 257.921C2.1 256.931 3.51 255.241 4.05 253.901ZM3.36 255.961C5.88 256.641 5.33 258.211 4.54 257.711C4.34 257.161 3.73 256.471 3.26 256.051L3.36 255.961ZM3.44 255.831V260.861C3.44 260.931 3.17 261.151 2.77 261.151H2.63V256.541L3.44 255.831ZM5.29 267.631C5.57 267.971 5.87 268.391 5.87 268.851C5.87 269.331 5.76 269.921 5.55 270.511C5.12 271.721 3.98 273.631 2.9 273.631C2.19 273.631 1.48 272.531 1.48 271.271C1.48 270.281 1.95 269.201 2.85 268.411C3.67 267.701 4.69 267.351 5.81 267.351C7.93 267.351 9.53 268.771 9.53 270.841C9.53 272.571 8.41 274.241 5.12 274.441L5.08 274.221C7.55 273.741 8.66 272.441 8.66 270.651C8.66 268.861 7.39 267.701 5.74 267.701C4.81 267.701 3.82 268.111 3.13 268.811C2.51 269.431 2.14 270.201 2.14 271.061C2.14 271.981 2.54 272.711 2.96 272.711C3.59 272.711 4.5 271.191 4.88 270.311C5.09 269.801 5.26 269.171 5.26 268.701C5.26 268.311 5.11 268.011 4.92 267.701L5.29 267.631ZM5.27309 288.511C4.05309 288.511 3.30309 287.991 3.11309 287.021C3.19309 286.801 3.36309 286.681 3.57309 286.681C3.84309 286.681 4.00309 286.831 4.09309 287.261L4.35309 288.231L3.94309 287.911C4.27309 288.091 4.56309 288.191 4.98309 288.191C6.08309 288.191 6.70309 287.521 6.70309 286.451C6.70309 285.331 6.10309 284.701 4.93309 284.701H4.49309V284.351H4.88309C5.84309 284.351 6.51309 283.771 6.51309 282.681C6.51309 281.741 6.03309 281.201 5.18309 281.201C4.82309 281.201 4.49309 281.271 4.09309 281.471L4.56309 281.191L4.30309 282.111C4.21309 282.481 4.03309 282.601 3.77309 282.601C3.58309 282.601 3.42309 282.511 3.35309 282.341C3.50309 281.311 4.41309 280.891 5.42309 280.891C6.75309 280.891 7.50309 281.601 7.50309 282.651C7.50309 283.611 6.81309 284.411 5.34309 284.571V284.461C7.00309 284.541 7.71309 285.321 7.71309 286.471C7.71309 287.701 6.73309 288.511 5.27309 288.511ZM2.89 298.351H8.15V298.651H2.89V298.351ZM2.89 301.891H8.15V302.181H2.89V301.891ZM7.75 294.951H7.65L8.09 294.461L9.02 295.191C8.95 295.271 8.8 295.351 8.6 295.401V302.741C8.59 302.821 8.19 303.031 7.88 303.031H7.75V294.951ZM2.46 294.951V294.561L3.36 294.951H8.2V295.251H3.29V302.771C3.29 302.881 2.98 303.091 2.61 303.091H2.46V294.951ZM3.6 312.561V312.221L4.39 312.561H6.94V312.851H4.35V316.071C4.35 316.141 4.03 316.311 3.72 316.311H3.6V312.561ZM3.96 315.371H6.92V315.661H3.96V315.371ZM3.96 313.931H6.92V314.221H3.96V313.931ZM6.57 312.561H6.48L6.86 312.141L7.7 312.781C7.65 312.851 7.51 312.931 7.33 312.961V315.961C7.32 316.031 6.95 316.211 6.69 316.211H6.57V312.561ZM1.44 308.631V308.241L2.27 308.631H4.46V308.911H2.23V316.851C2.23 316.961 1.95 317.161 1.57 317.161H1.44V308.631ZM5.97 308.631V308.281L6.78 308.631H9.08V308.911H6.74V311.651C6.74 311.721 6.4 311.901 6.08 311.901H5.97V308.631ZM8.74 308.631H8.64L9.03 308.151L9.96 308.851C9.89 308.931 9.73 309.021 9.53 309.061V316.081C9.53 316.691 9.42 317.061 8.38 317.161C8.35 316.911 8.3 316.701 8.16 316.571C8.01 316.451 7.79 316.351 7.34 316.281V316.131C7.34 316.131 8.31 316.201 8.51 316.201C8.69 316.201 8.74 316.141 8.74 315.991V308.631ZM4.14 308.631H4.05L4.44 308.211L5.28 308.841C5.22 308.911 5.07 308.991 4.9 309.021V311.701C4.89 311.761 4.51 311.931 4.26 311.931H4.14V308.631ZM1.82 309.871H4.42V310.161H1.82V309.871ZM1.82 311.151H4.42V311.441H1.82V311.151ZM6.42 309.871H9.08V310.161H6.42V309.871ZM6.42 311.151H9.08V311.441H6.42V311.151Z" fill="black"/>
</svg>
