<svg xmlns="http://www.w3.org/2000/svg" viewBox="0 0 24 24">
    <path class="st0" fill-rule="evenodd" d="M13.149 10.851c.146.146.146.384 0 .53-.146.147-.384.147-.53 0-.986-.985-2.56-1.023-3.592-.113l-.12.113-2.122 2.122c-1.025 1.025-1.025 2.687 0 3.712.986.986 2.56 1.024 3.591.114l.121-.114 2.122-2.121c.146-.147.384-.147.53 0 .128.128.144.326.048.471l-.048.059-2.121 2.121c-1.318 1.318-3.455 1.318-4.773 0-1.274-1.274-1.317-3.313-.128-4.638l.128-.135 2.121-2.121c1.318-1.318 3.455-1.318 4.773 0zm4.773-4.773c1.274 1.274 1.317 3.313.127 4.638l-.127.135-2.121 2.121c-1.318 1.318-3.455 1.318-4.773 0-.147-.146-.147-.384 0-.53.146-.147.384-.147.53 0 .986.986 2.56 1.024 3.591.114l.121-.114 2.122-2.121c1.025-1.026 1.025-2.688 0-3.713-.986-.985-2.56-1.023-3.592-.113l-.12.113-2.122 2.122c-.146.146-.384.146-.53 0-.128-.129-.144-.326-.048-.472l.048-.059 2.121-2.121c1.318-1.318 3.455-1.318 4.773 0z"/>
    <style type="text/css">
    .st0 { fill: #fff; }
    </style>
</svg>