<svg viewBox="0 0 647 112" fill="none" xmlns="http://www.w3.org/2000/svg">
<circle cx="49.5" cy="49.5" r="49" fill="#171616" stroke="white"/>
<path d="M30.75 19.4881L81 48.5L30.75 77.5118L30.75 19.4881Z" fill="white" stroke="black"/>
<path d="M144.992 85V82.12L158.24 80.968H160.832L174.656 82.12V85H144.992ZM154.88 85C155.072 74.44 155.072 63.592 155.072 52.744V47.464C155.072 36.616 155.072 25.864 154.88 15.112H163.808C163.616 25.768 163.616 36.616 163.616 47.464V54.184C163.616 63.784 163.616 74.344 163.808 85H154.88ZM159.392 56.392V53.32H169.088C183.68 53.32 189.632 46.024 189.632 35.464C189.632 24.328 183.968 18.376 171.488 18.376H159.392V15.112H172.256C189.824 15.112 197.984 22.888 197.984 35.464C197.984 47.368 189.44 56.392 169.376 56.392H159.392ZM144.992 18.088V15.112H159.392V19.144H158.24L144.992 18.088ZM203.92 85V82.408L215.152 81.352H218.224L229.456 82.408V85H203.92ZM212.56 85C212.752 79.048 212.848 69.928 212.848 63.112V13.672L204.4 13.192V10.6L219.664 7.71999L221.104 8.58399L220.72 23.56V63.112C220.72 69.928 220.816 79.048 221.104 85H212.56ZM250.394 86.44C242.81 86.44 237.146 82.024 237.146 73.96C237.146 66.568 241.658 61.672 254.33 57.928C259.706 56.392 265.85 54.76 271.034 53.608V55.912C265.946 57.256 260.378 58.792 256.058 60.424C247.994 63.4 244.826 67.528 244.826 72.712C244.826 78.76 248.474 81.736 253.85 81.736C258.074 81.736 261.818 79.528 269.21 72.136L270.074 76.648H267.77C261.818 83.176 257.594 86.44 250.394 86.44ZM276.026 86.344C270.362 86.344 267.578 82.312 267.194 75.496V50.536C267.194 39.88 263.834 37.096 256.25 37.096C252.506 37.096 248.954 38.056 244.634 40.456L248.858 37.864L247.226 45.448C246.746 48.904 245.018 50.056 242.714 50.056C240.506 50.056 238.97 48.904 238.49 46.696C240.314 38.824 247.514 34.12 258.362 34.12C269.498 34.12 274.874 39.016 274.874 51.016V74.728C274.874 80.68 276.218 82.408 278.906 82.408C280.538 82.408 281.594 81.832 283.226 80.008L284.762 81.544C282.65 84.808 279.77 86.344 276.026 86.344ZM292.149 111.016C287.925 111.016 283.797 109.192 283.413 105.832C283.893 103.24 286.389 101.992 289.077 101.992C291.573 101.992 293.781 103.336 295.989 105.544L298.677 108.232L295.701 109.768L293.781 108.136C300.021 106.408 305.013 100.072 308.565 90.568L311.349 83.56L311.829 82.408L320.373 58.696L328.437 35.56H332.181L312.021 89.512C306.261 104.776 299.829 111.016 292.149 111.016ZM310.485 89.992L288.693 35.56H297.429L313.557 79.336L314.133 80.584L310.485 89.992ZM283.701 38.152V35.56H307.413V38.152L297.141 39.112H293.205L283.701 38.152ZM317.973 38.152V35.56H337.365V38.152L329.589 39.112H328.149L317.973 38.152ZM365.84 85V82.12L376.496 80.968H378.416L389.36 82.12V85H365.84ZM366.032 18.088V15.112H379.184V19.144H378.32L366.032 18.088ZM375.44 85L375.632 15.112H378.608L379.28 47.848V85H375.44ZM404.336 85L377.072 18.28H376.496V15.112H384.368L409.136 76.36H407.12L407.696 75.112L431.6 15.112H435.344V18.28H434.096L433.04 20.776L407.504 85H404.336ZM422.192 85V82.12L435.248 80.968H437.264L450.704 82.12V85H422.192ZM431.792 85C432.08 74.344 431.984 63.592 432.08 53.8L432.464 15.112H440.72C440.432 25.768 440.432 36.616 440.432 47.464V52.744C440.432 63.592 440.432 74.44 440.72 85H431.792ZM436.208 19.144V15.112H450.416V18.088L437.264 19.144H436.208ZM481.168 86.44C468.4 86.44 457.264 77.608 457.264 60.328C457.264 43.048 468.784 34.12 481.168 34.12C493.552 34.12 505.168 43.048 505.168 60.328C505.168 77.608 493.84 86.44 481.168 86.44ZM481.168 83.464C490.672 83.464 496.528 75.4 496.528 60.424C496.528 45.448 490.672 37.192 481.168 37.192C471.664 37.192 465.808 45.448 465.808 60.424C465.808 75.4 471.664 83.464 481.168 83.464ZM533.944 85.576L513.88 35.56H522.712L539.032 78.952H537.4L537.88 77.8L552.76 35.56H556.504L537.688 85.576H533.944ZM508.792 38.344V35.56H532.696V38.344L522.136 39.208H518.296L508.792 38.344ZM542.872 38.344V35.56H561.88V38.344L554.104 39.208H552.472L542.872 38.344ZM566.378 85V82.408L576.938 81.352H579.914L590.09 82.408V85H566.378ZM574.346 85C574.538 80.392 574.73 69.64 574.73 63.112V57.352C574.73 50.824 574.538 45.832 574.346 41.032L565.802 40.648V38.152L581.546 34.312L582.698 35.176L582.506 48.52V63.112C582.506 69.64 582.602 80.392 582.794 85H574.346ZM577.802 22.12C574.73 22.12 572.33 20.008 572.33 16.744C572.33 13.672 574.73 11.368 577.802 11.368C580.874 11.368 583.466 13.672 583.466 16.744C583.466 20.008 580.874 22.12 577.802 22.12ZM623.213 86.44C608.909 86.44 598.733 77.704 598.733 60.424C598.733 44.2 609.677 34.12 622.349 34.12C634.829 34.12 642.221 42.76 642.221 53.992C642.221 56.392 642.029 58.312 641.645 59.848H602.381V56.776H630.317C633.677 56.776 634.637 55.144 634.637 51.208C634.637 43.048 630.029 37.192 622.157 37.192C613.709 37.192 606.989 45.352 606.989 59.272C606.989 74.824 614.669 81.64 625.325 81.64C632.045 81.64 636.941 79.24 640.877 74.632L642.413 75.976C638.189 82.504 631.853 86.44 623.213 86.44Z" fill="white"/>
</svg>
